<svg xmlns="http://www.w3.org/2000/svg" viewBox="0 0 40 46" width="40" height="46">
  <ellipse cx="20" cy="43" rx="15" ry="2" fill="rgba(0,0,0,0.45)"/>
  <rect x="17" y="1" width="6" height="2" fill="#d8d8d8" stroke="#000" stroke-width="0.9"/>
  <ellipse cx="20" cy="5" rx="14" ry="2.6" fill="#ececec" stroke="#000" stroke-width="1"/>
  <path d="M6 5 Q6 7.6 20 8.2 Q34 7.6 34 5" fill="#c4c4c4" stroke="#000" stroke-width="1"/>
  <path d="M7 7.5 L10 38 Q10.2 40 12.2 40 L27.8 40 Q29.8 40 30 38 L33 7.5" fill="#dddddd" stroke="#000" stroke-width="1" stroke-linejoin="miter"/>
  <ellipse cx="20" cy="39.5" rx="8.8" ry="1.6" fill="#b8b8b8" stroke="#000" stroke-width="0.9"/>
  <line x1="10.8" y1="9.5" x2="12.2" y2="37.5" stroke="#000" stroke-width="0.8"/>
  <line x1="14" y1="9.5" x2="14.9" y2="37.5" stroke="#000" stroke-width="0.8"/>
  <line x1="17" y1="9.5" x2="17.4" y2="37.5" stroke="#000" stroke-width="0.8"/>
  <line x1="20" y1="9.5" x2="20" y2="37.5" stroke="#000" stroke-width="0.8"/>
  <line x1="23" y1="9.5" x2="22.6" y2="37.5" stroke="#000" stroke-width="0.8"/>
  <line x1="26" y1="9.5" x2="25.1" y2="37.5" stroke="#000" stroke-width="0.8"/>
  <line x1="29.2" y1="9.5" x2="27.8" y2="37.5" stroke="#000" stroke-width="0.8"/>
  <line x1="8.5" y1="8" x2="11.2" y2="37" stroke="#fafafa" stroke-width="0.8"/>
</svg>
